<svg xmlns="http://www.w3.org/2000/svg" width="193.814" height="56.53" viewBox="0 0 193.814 56.53">
  <g id="Group_18" data-name="Group 18" transform="translate(-0.5 -5.276)">
    <path id="Path_778" data-name="Path 778" d="M92.375,10.22H97.1v9.96h4.091V10.22h4.72v24.3h-4.72V23.75H97.1V34.52h-4.72Zm17.126,0h4.692v24.3H109.5Zm8.527,0h5.006l2.861,15.33,3.032-15.33h4.835l.429,24.3h-3.433l-.372-16.5-2.975,16.5h-2.918l-3.061-16.59-.343,16.59h-3.462Zm22.924,0h5.235l4.463,24.3H146.3l-.858-5.34h-3.662l-.887,5.34H136.46Zm4.034,15.9-1.4-9.78-1.373,9.78ZM153,10.22h4.692V31.16h5.464v3.36H153Zm15.723,0h5.235l4.463,24.3h-4.348l-.858-5.34h-3.662l-.887,5.34H164.23Zm4.034,15.9-1.4-9.78-1.373,9.78Zm10.011-1.23-4.52-14.67h4.434l2.489,8.55,2.289-8.55h4.32l-4.463,14.67v9.63h-4.549ZM196.1,10.22h5.235l4.463,24.3H201.45l-.858-5.34H196.93l-.887,5.34h-4.434Zm4.034,15.9-1.4-9.78-1.373,9.78ZM92.318,37.852h10.1v3.42H97.01v6.45h4.177v3.45H97.01v7.62h5.464v3.36H92.318Zm15.061,11.28-4.406-11.28h4.463l2.746,7.02,2.289-7.02h4.005L112.271,50.3l4.606,11.85h-4.406l-3.032-7.68-2.661,7.68H102.8Zm17,13.35q-3.69,0-5.235-2.07a10.058,10.058,0,0,1-1.545-6.03v-8.7q0-4.02,1.516-6.06,1.545-2.07,5.264-2.07,3.547,0,5.006,1.83a7.958,7.958,0,0,1,1.488,5.19v2.04h-4.577v-2.25a10.623,10.623,0,0,0-.114-1.74,1.783,1.783,0,0,0-.515-1.08,2,2,0,0,0-2.918.42,6.757,6.757,0,0,0-.372,2.55v11.04a5.829,5.829,0,0,0,.429,2.55,1.631,1.631,0,0,0,1.6.84,1.479,1.479,0,0,0,1.545-.84,7.283,7.283,0,0,0,.343-2.55v-2.37h4.577v2.01a8.762,8.762,0,0,1-1.459,5.4Q127.951,62.482,124.375,62.482Zm8.861-24.63h4.72v9.96h4.091v-9.96h4.72v24.3h-4.72V51.382h-4.091v10.77h-4.72Zm19.843,0h5.235l4.463,24.3h-4.348l-.858-5.34h-3.662l-.887,5.34h-4.434Zm4.034,15.9-1.4-9.78-1.373,9.78Zm7.44-15.9h3.29l5.149,12.63V37.852h3.919v24.3h-3.175l-5.149-13.44v13.44h-4.034Zm21.19,24.66q-3.375,0-4.835-2.16a11.4,11.4,0,0,1-1.43-6.24v-8.13q0-4.14,1.516-6.27,1.545-2.16,5.264-2.16,3.576,0,5.092,1.83a8.079,8.079,0,0,1,1.516,5.28v1.41h-4.577v-1.71a6.059,6.059,0,0,0-.372-2.46q-.343-.81-1.6-.81a1.593,1.593,0,0,0-1.659.9,7.126,7.126,0,0,0-.372,2.61V55.4a6.121,6.121,0,0,0,.458,2.64,2.05,2.05,0,0,0,3.433-.06,5.986,5.986,0,0,0,.515-2.73v-2.58h-2.26v-3h6.523v12.48h-3.09l-.315-2.16A3.812,3.812,0,0,1,185.743,62.512Zm9.877-24.66h10.1v3.42h-5.407v6.45h4.177v3.45h-4.177v7.62h5.464v3.36H195.62Z" transform="translate(-17.025 -1.043)" fill="#fff"/>
    <path id="Path_779" data-name="Path 779" d="M244.942,70.452h4.12v4.177h-4.12Z" transform="translate(-54.747 -13.503)" fill="#febd09"/>
    <path id="Path_780" data-name="Path 780" d="M19.363,52.025V23.632l11,14.41Z" transform="translate(-4.539 -3.051)" fill="none" stroke="#fcbd14" stroke-miterlimit="10" stroke-width="1"/>
    <path id="Path_781" data-name="Path 781" d="M56.941,52.025V23.632l-11,14.41Z" transform="translate(-10.047 -3.051)" fill="none" stroke="#fcbd14" stroke-miterlimit="10" stroke-width="1"/>
    <path id="Path_782" data-name="Path 782" d="M37.042,52.7l8.875.013v.836a8.65,8.65,0,0,1-.04,1.184,2.782,2.782,0,0,1-1,2.188c-.745.613-2.3.9-4.687.892v3.5H59.722V57.7a6.433,6.433,0,0,1-3.009-.905,2.546,2.546,0,0,1-.945-1.352,7.423,7.423,0,0,1-.239-2.368v-35.8a7.131,7.131,0,0,1,.239-2.368,2.565,2.565,0,0,1,.945-1.337,6.378,6.378,0,0,1,3.009-.905V9.053H41.507l3.382,4.388a4.64,4.64,0,0,1,1.038,3.483H36.946L32.815,25.41V12.163h3.394L31.432,7.134,30.348,6,29.264,7.134l-4.81,5.031H28.1V25.41l-4.127-8.485H14.795a4.64,4.64,0,0,1,1.038-3.483l3.382-4.388H1V12.66a6.378,6.378,0,0,1,3.009.905A2.565,2.565,0,0,1,4.955,14.9a7.077,7.077,0,0,1,.239,2.368v35.8a7.423,7.423,0,0,1-.239,2.368,2.554,2.554,0,0,1-.945,1.352A6.434,6.434,0,0,1,1,57.7V61.3H20.532v-3.5c-2.383.015-3.94-.279-4.687-.892a2.778,2.778,0,0,1-1-2.188,8.649,8.649,0,0,1-.04-1.184v-.836l9.168-.013,4.143-8.657V57.275h4.707V44.043Z" fill="none" stroke="#fcbd14" stroke-miterlimit="10" stroke-width="1"/>
  </g>
</svg>
